<mxfile host="app.diagrams.net" agent="Mozilla/5.0 (Windows NT 10.0; Win64; x64) AppleWebKit/537.36 (KHTML, like Gecko) Chrome/130.0.0.0 Safari/537.36" version="24.8.3">
  <diagram name="Page-1" id="1R_zpNous7iK1eefqVG9">
    <mxGraphModel dx="956" dy="492" grid="1" gridSize="10" guides="1" tooltips="1" connect="1" arrows="1" fold="1" page="1" pageScale="1" pageWidth="827" pageHeight="1169" math="0" shadow="0">
      <root>
        <mxCell id="0" />
        <mxCell id="1" parent="0" />
        <mxCell id="5NkmUDWIOqWAVEyyvutt-1" value="Coupang CI/CD&lt;div&gt;or&lt;/div&gt;&lt;div&gt;Controller&lt;/div&gt;" style="whiteSpace=wrap;html=1;aspect=fixed;" vertex="1" parent="1">
          <mxGeometry x="30" y="300" width="80" height="80" as="geometry" />
        </mxCell>
        <mxCell id="5NkmUDWIOqWAVEyyvutt-2" value="Globalyzer Scan Agent" style="whiteSpace=wrap;html=1;aspect=fixed;" vertex="1" parent="1">
          <mxGeometry x="231" y="120" width="80" height="80" as="geometry" />
        </mxCell>
        <mxCell id="5NkmUDWIOqWAVEyyvutt-3" value="Globalyzer&amp;nbsp;&lt;div&gt;Scan Agent&lt;/div&gt;" style="whiteSpace=wrap;html=1;aspect=fixed;" vertex="1" parent="1">
          <mxGeometry x="231" y="240" width="80" height="80" as="geometry" />
        </mxCell>
        <mxCell id="5NkmUDWIOqWAVEyyvutt-4" value="Globalyzer Scan Agent" style="whiteSpace=wrap;html=1;aspect=fixed;" vertex="1" parent="1">
          <mxGeometry x="231" y="360" width="80" height="80" as="geometry" />
        </mxCell>
        <mxCell id="5NkmUDWIOqWAVEyyvutt-5" value="Globalyzer Scan Agent" style="whiteSpace=wrap;html=1;aspect=fixed;" vertex="1" parent="1">
          <mxGeometry x="231" y="480" width="80" height="80" as="geometry" />
        </mxCell>
        <mxCell id="5NkmUDWIOqWAVEyyvutt-6" value="Globalyzer Report&lt;div&gt;&amp;nbsp;&lt;div&gt;&amp;nbsp;&lt;b&gt;Command Center&lt;/b&gt;&lt;/div&gt;&lt;/div&gt;" style="shape=internalStorage;whiteSpace=wrap;html=1;backgroundOutline=1;" vertex="1" parent="1">
          <mxGeometry x="500" y="260" width="210" height="160" as="geometry" />
        </mxCell>
        <mxCell id="5NkmUDWIOqWAVEyyvutt-9" value="" style="endArrow=classic;html=1;rounded=0;entryX=0;entryY=0.5;entryDx=0;entryDy=0;" edge="1" parent="1" target="5NkmUDWIOqWAVEyyvutt-3">
          <mxGeometry width="50" height="50" relative="1" as="geometry">
            <mxPoint x="110" y="340" as="sourcePoint" />
            <mxPoint x="160" y="290" as="targetPoint" />
          </mxGeometry>
        </mxCell>
        <mxCell id="5NkmUDWIOqWAVEyyvutt-10" value="" style="endArrow=classic;html=1;rounded=0;entryX=0;entryY=0.5;entryDx=0;entryDy=0;" edge="1" parent="1" target="5NkmUDWIOqWAVEyyvutt-2">
          <mxGeometry width="50" height="50" relative="1" as="geometry">
            <mxPoint x="110" y="340" as="sourcePoint" />
            <mxPoint x="160" y="290" as="targetPoint" />
          </mxGeometry>
        </mxCell>
        <mxCell id="5NkmUDWIOqWAVEyyvutt-11" value="" style="endArrow=classic;html=1;rounded=0;exitX=1;exitY=0.5;exitDx=0;exitDy=0;entryX=0;entryY=0.5;entryDx=0;entryDy=0;" edge="1" parent="1" source="5NkmUDWIOqWAVEyyvutt-1" target="5NkmUDWIOqWAVEyyvutt-4">
          <mxGeometry width="50" height="50" relative="1" as="geometry">
            <mxPoint x="390" y="370" as="sourcePoint" />
            <mxPoint x="440" y="320" as="targetPoint" />
          </mxGeometry>
        </mxCell>
        <mxCell id="5NkmUDWIOqWAVEyyvutt-12" value="" style="endArrow=classic;html=1;rounded=0;exitX=1;exitY=0.5;exitDx=0;exitDy=0;entryX=0;entryY=0.5;entryDx=0;entryDy=0;" edge="1" parent="1" source="5NkmUDWIOqWAVEyyvutt-1" target="5NkmUDWIOqWAVEyyvutt-5">
          <mxGeometry width="50" height="50" relative="1" as="geometry">
            <mxPoint x="390" y="370" as="sourcePoint" />
            <mxPoint x="440" y="320" as="targetPoint" />
          </mxGeometry>
        </mxCell>
        <mxCell id="5NkmUDWIOqWAVEyyvutt-13" value="" style="endArrow=classic;html=1;rounded=0;exitX=1;exitY=0.5;exitDx=0;exitDy=0;" edge="1" parent="1" source="5NkmUDWIOqWAVEyyvutt-2">
          <mxGeometry width="50" height="50" relative="1" as="geometry">
            <mxPoint x="310" y="170" as="sourcePoint" />
            <mxPoint x="500" y="360" as="targetPoint" />
          </mxGeometry>
        </mxCell>
        <mxCell id="5NkmUDWIOqWAVEyyvutt-14" value="" style="endArrow=classic;html=1;rounded=0;exitX=1;exitY=0.5;exitDx=0;exitDy=0;" edge="1" parent="1" source="5NkmUDWIOqWAVEyyvutt-3">
          <mxGeometry width="50" height="50" relative="1" as="geometry">
            <mxPoint x="460" y="540" as="sourcePoint" />
            <mxPoint x="500" y="360" as="targetPoint" />
          </mxGeometry>
        </mxCell>
        <mxCell id="5NkmUDWIOqWAVEyyvutt-15" value="" style="endArrow=classic;html=1;rounded=0;exitX=1;exitY=0.5;exitDx=0;exitDy=0;entryX=-0.029;entryY=0.625;entryDx=0;entryDy=0;entryPerimeter=0;" edge="1" parent="1" source="5NkmUDWIOqWAVEyyvutt-4" target="5NkmUDWIOqWAVEyyvutt-6">
          <mxGeometry width="50" height="50" relative="1" as="geometry">
            <mxPoint x="540" y="520" as="sourcePoint" />
            <mxPoint x="590" y="470" as="targetPoint" />
          </mxGeometry>
        </mxCell>
        <mxCell id="5NkmUDWIOqWAVEyyvutt-16" value="" style="endArrow=classic;html=1;rounded=0;exitX=1;exitY=0.5;exitDx=0;exitDy=0;" edge="1" parent="1" source="5NkmUDWIOqWAVEyyvutt-5">
          <mxGeometry width="50" height="50" relative="1" as="geometry">
            <mxPoint x="420" y="550" as="sourcePoint" />
            <mxPoint x="500" y="360" as="targetPoint" />
          </mxGeometry>
        </mxCell>
      </root>
    </mxGraphModel>
  </diagram>
</mxfile>
